HIERARCHY
ROOT reference
{
  OFFSET 0 0 0
  CHANNELS 6 Xposition Yposition Zposition Zrotation Xrotation Yrotation
  JOINT Hips
  {
    OFFSET 350.331 86.7696 215.823
    CHANNELS 3 Zrotation Xrotation Yrotation
    JOINT RightUpLeg
    {
      OFFSET -9.29271 -1.56052 -0.0234997
      CHANNELS 3 Zrotation Xrotation Yrotation
      JOINT RightLeg
      {
        OFFSET -0.0199852 -41.8973 0.0465042
        CHANNELS 3 Zrotation Xrotation Yrotation
        JOINT RightFoot
        {
          OFFSET -0.344404 -43.5008 0.46033
          CHANNELS 3 Zrotation Xrotation Yrotation
          End Site
          {
            OFFSET 0 -7.69 17.5
          }
        }
      }
    }
    JOINT LeftUpLeg
    {
      OFFSET 9.27671 -1.61046 0.00923455
      CHANNELS 3 Zrotation Xrotation Yrotation
      JOINT LeftLeg
      {
        OFFSET 0.0572944 -41.8832 0.025786
        CHANNELS 3 Zrotation Xrotation Yrotation
        JOINT LeftFoot
        {
          OFFSET 0.630082 -40.4663 0.064708
          CHANNELS 3 Zrotation Xrotation Yrotation
          End Site
          {
            OFFSET 0 -7.69 17.5
          }
        }
      }
    }
    JOINT Spine
    {
      OFFSET 0.0336257 14.3009 0.0467062
      CHANNELS 3 Zrotation Xrotation Yrotation
      JOINT Spine1
      {
        OFFSET 0.0295985 9.72711 0.0239471
        CHANNELS 3 Zrotation Xrotation Yrotation
        JOINT Spine2
        {
          OFFSET 0.0515174 10.1206 0.00128176
          CHANNELS 3 Zrotation Xrotation Yrotation
          JOINT Spine3
          {
            OFFSET 0.0546141 9.71668 0.0122483
            CHANNELS 3 Zrotation Xrotation Yrotation
            JOINT Neck
            {
              OFFSET 0.0872189 10.3831 0.0511468
              CHANNELS 3 Zrotation Xrotation Yrotation
              JOINT Head
              {
                OFFSET 0.0544 9.47189 0.0313815
                CHANNELS 3 Zrotation Xrotation Yrotation
                End Site
                {
                  OFFSET 0 15.95 0
                }
              }
            }
            JOINT RightShoulder
            {
              OFFSET -3.15364 6.93551 0.0260198
              CHANNELS 3 Zrotation Xrotation Yrotation
              JOINT RightArm
              {
                OFFSET -12.7567 0.0626665 0.0664987
                CHANNELS 3 Zrotation Xrotation Yrotation
                JOINT RightForeArm
                {
                  OFFSET -26.5087 -0.073346 0.274032
                  CHANNELS 3 Zrotation Xrotation Yrotation
                  JOINT RightHand
                  {
                    OFFSET -26.0005 -0.196673 0.105827
                    CHANNELS 3 Zrotation Xrotation Yrotation
                    JOINT RightHandThumb1
                    {
                      OFFSET -2.48905 0.190105 3.12053
                      CHANNELS 3 Zrotation Xrotation Yrotation
                      JOINT RightHandThumb2
                      {
                        OFFSET -3.68274 0 0
                        CHANNELS 3 Zrotation Xrotation Yrotation
                        JOINT RightHandThumb3
                        {
                          OFFSET -2.55832 0 0
                          CHANNELS 3 Zrotation Xrotation Yrotation
                          End Site
                          {
                            OFFSET -2.194 0 0
                          }
                        }
                      }
                    }
                    JOINT RightInHandIndex
                    {
                      OFFSET -3.22368 0.508421 1.97842
                      CHANNELS 3 Zrotation Xrotation Yrotation
                      JOINT RightHandIndex1
                      {
                        OFFSET -5.21684 -0.091368 0.999158
                        CHANNELS 3 Zrotation Xrotation Yrotation
                        JOINT RightHandIndex2
                        {
                          OFFSET -3.61937 0 0
                          CHANNELS 3 Zrotation Xrotation Yrotation
                          JOINT RightHandIndex3
                          {
                            OFFSET -2.0521 0 0
                            CHANNELS 3 Zrotation Xrotation Yrotation
                            End Site
                            {
                              OFFSET -1.805 0 0
                            }
                          }
                        }
                      }
                    }
                    JOINT RightInHandMiddle
                    {
                      OFFSET -3.38211 0.517263 0.756737
                      CHANNELS 3 Zrotation Xrotation Yrotation
                      JOINT RightHandMiddle1
                      {
                        OFFSET -5.17411 -0.084 0.313895
                        CHANNELS 3 Zrotation Xrotation Yrotation
                        JOINT RightHandMiddle2
                        {
                          OFFSET -3.94947 0 0
                          CHANNELS 3 Zrotation Xrotation Yrotation
                          JOINT RightHandMiddle3
                          {
                            OFFSET -2.47579 0 0
                            CHANNELS 3 Zrotation Xrotation Yrotation
                            End Site
                            {
                              OFFSET -1.975 0 0
                            }
                          }
                        }
                      }
                    }
                    JOINT RightInHandRing
                    {
                      OFFSET -3.36516 0.537895 -0.128947
                      CHANNELS 3 Zrotation Xrotation Yrotation
                      JOINT RightHandRing1
                      {
                        OFFSET -4.63474 -0.022105 -0.478947
                        CHANNELS 3 Zrotation Xrotation Yrotation
                        JOINT RightHandRing2
                        {
                          OFFSET -3.44238 0 0
                          CHANNELS 3 Zrotation Xrotation Yrotation
                          JOINT RightHandRing3
                          {
                            OFFSET -2.3881 0 0
                            CHANNELS 3 Zrotation Xrotation Yrotation
                            End Site
                            {
                              OFFSET -1.857 0 0
                            }
                          }
                        }
                      }
                    }
                    JOINT RightInHandPinky
                    {
                      OFFSET -3.16105 0.469368 -1.20179
                      CHANNELS 3 Zrotation Xrotation Yrotation
                      JOINT RightHandPinky1
                      {
                        OFFSET -4.14105 -0.022105 -1.09053
                        CHANNELS 3 Zrotation Xrotation Yrotation
                        JOINT RightHandPinky2
                        {
                          OFFSET -2.75653 0 0
                          CHANNELS 3 Zrotation Xrotation Yrotation
                          JOINT RightHandPinky3
                          {
                            OFFSET -1.74189 0 0
                            CHANNELS 3 Zrotation Xrotation Yrotation
                            End Site
                            {
                              OFFSET -1.645 0 0
                            }
                          }
                        }
                      }
                    }
                  }
                }
              }
            }
            JOINT LeftShoulder
            {
              OFFSET 3.27252 6.91581 -0.0198585
              CHANNELS 3 Zrotation Xrotation Yrotation
              JOINT LeftArm
              {
                OFFSET 12.8319 -0.0466028 -0.0574599
                CHANNELS 3 Zrotation Xrotation Yrotation
                JOINT LeftForeArm
                {
                  OFFSET 26.4942 -0.039105 -0.0936
                  CHANNELS 3 Zrotation Xrotation Yrotation
                  JOINT LeftHand
                  {
                    OFFSET 26.0008 0.022674 -0.016655
                    CHANNELS 3 Zrotation Xrotation Yrotation
                    JOINT LeftHandThumb1
                    {
                      OFFSET 2.48905 0.190105 3.12053
                      CHANNELS 3 Zrotation Xrotation Yrotation
                      JOINT LeftHandThumb2
                      {
                        OFFSET 3.68274 0 0
                        CHANNELS 3 Zrotation Xrotation Yrotation
                        JOINT LeftHandThumb3
                        {
                          OFFSET 2.55832 0 0
                          CHANNELS 3 Zrotation Xrotation Yrotation
                          End Site
                          {
                            OFFSET 2.194 0 0
                          }
                        }
                      }
                    }
                    JOINT LeftInHandIndex
                    {
                      OFFSET 3.22368 0.508421 1.97842
                      CHANNELS 3 Zrotation Xrotation Yrotation
                      JOINT LeftHandIndex1
                      {
                        OFFSET 5.21684 -0.091368 0.999158
                        CHANNELS 3 Zrotation Xrotation Yrotation
                        JOINT LeftHandIndex2
                        {
                          OFFSET 3.61937 0 0
                          CHANNELS 3 Zrotation Xrotation Yrotation
                          JOINT LeftHandIndex3
                          {
                            OFFSET 2.0521 0 0
                            CHANNELS 3 Zrotation Xrotation Yrotation
                            End Site
                            {
                              OFFSET 1.805 0 0
                            }
                          }
                        }
                      }
                    }
                    JOINT LeftInHandMiddle
                    {
                      OFFSET 3.38211 0.517263 0.756737
                      CHANNELS 3 Zrotation Xrotation Yrotation
                      JOINT LeftHandMiddle1
                      {
                        OFFSET 5.17411 -0.084 0.313895
                        CHANNELS 3 Zrotation Xrotation Yrotation
                        JOINT LeftHandMiddle2
                        {
                          OFFSET 3.94947 0 0
                          CHANNELS 3 Zrotation Xrotation Yrotation
                          JOINT LeftHandMiddle3
                          {
                            OFFSET 2.47579 0 0
                            CHANNELS 3 Zrotation Xrotation Yrotation
                            End Site
                            {
                              OFFSET 1.975 0 0
                            }
                          }
                        }
                      }
                    }
                    JOINT LeftInHandRing
                    {
                      OFFSET 3.36516 0.537895 -0.128947
                      CHANNELS 3 Zrotation Xrotation Yrotation
                      JOINT LeftHandRing1
                      {
                        OFFSET 4.63474 -0.022105 -0.478947
                        CHANNELS 3 Zrotation Xrotation Yrotation
                        JOINT LeftHandRing2
                        {
                          OFFSET 3.44238 0 0
                          CHANNELS 3 Zrotation Xrotation Yrotation
                          JOINT LeftHandRing3
                          {
                            OFFSET 2.3881 0 0
                            CHANNELS 3 Zrotation Xrotation Yrotation
                            End Site
                            {
                              OFFSET 1.857 0 0
                            }
                          }
                        }
                      }
                    }
                    JOINT LeftInHandPinky
                    {
                      OFFSET 3.16105 0.469368 -1.20179
                      CHANNELS 3 Zrotation Xrotation Yrotation
                      JOINT LeftHandPinky1
                      {
                        OFFSET 4.14105 -0.022105 -1.09053
                        CHANNELS 3 Zrotation Xrotation Yrotation
                        JOINT LeftHandPinky2
                        {
                          OFFSET 2.75653 0 0
                          CHANNELS 3 Zrotation Xrotation Yrotation
                          JOINT LeftHandPinky3
                          {
                            OFFSET 1.74189 0 0
                            CHANNELS 3 Zrotation Xrotation Yrotation
                            End Site
                            {
                              OFFSET 1.645 0 0
                            }
                          }
                        }
                      }
                    }
                  }
                }
              }
            }
          }
        }
      }
    }
  }
}
MOTION
Frames: 2
Frame Time: 0.00833333
4.500000000000000000e+02 0.000000000000000000e+00 0.000000000000000000e+00 0.000000000000000000e+00 0.000000000000000000e+00 0.000000000000000000e+00 -2.956709254314241961e-02 5.430581788807848503e-02 1.755404382056529045e-01 -1.774986615407330715e-01 9.403213903630401604e-02 -2.122540752890735016e-01 3.671083415309586706e-02 4.384789348575490048e-02 -4.980645806464176900e-02 4.285574038486045234e-02 -7.057078954216106093e-02 -3.261322284520313652e-03 -1.156872088154030920e-01 -7.041360746627430001e-02 -1.691908842006355773e-01 9.622923238082096986e-02 -6.815250083321798547e-02 -7.099337470284922125e-02 -2.832620852419201821e-02 7.687890099133043442e-02 -1.832123432008493993e-02 5.711892958490919631e-02 7.274647346406046267e-02 -1.478861561020085869e-01 1.394100702629434696e-02 9.382176263721559231e-03 -3.927855564598425886e-02 2.186160763169902460e-02 1.249778291922030299e-02 -5.849955030493141084e-02 -2.484684041512047296e-03 -2.520424351990156915e-03 8.227978582861056669e-03 -1.741133942998441880e-03 -8.505386402183636417e-04 -2.368908054957792261e-02 -2.216066639828652776e-02 -8.188997136678245747e-02 1.544472022305753423e-01 -1.144186555034111541e-01 -2.338388430866112921e-01 1.347159072592679918e-01 4.279804530883578595e-01 -9.310548993123889117e-02 4.688058843518788654e-02 -2.578588878680940333e+00 2.198524328799129623e+00 -3.546838989078802573e+00 1.235003059033819683e+00 -1.192705153792776196e+00 1.460967938552748535e+00 0.000000000000000000e+00 0.000000000000000000e+00 0.000000000000000000e+00 5.393828799960114941e-15 -5.879829455644270229e-16 0.000000000000000000e+00 -1.482285280831497352e-14 2.069462403517500670e-15 0.000000000000000000e+00 -2.155746277195294443e-15 4.490279753817189365e-16 -1.139689821746278331e-15 0.000000000000000000e+00 0.000000000000000000e+00 0.000000000000000000e+00 0.000000000000000000e+00 5.882075393324022963e-16 9.080228398423329668e-15 0.000000000000000000e+00 -5.560473504507550393e-17 -5.808359658313661944e-15 -2.155746277195294443e-15 4.490279753817189365e-16 -1.139689821746278331e-15 0.000000000000000000e+00 -4.625447529149723811e-15 -5.418203964054113612e-15 0.000000000000000000e+00 -4.975432399513437159e-17 7.888614120435661310e-15 0.000000000000000000e+00 -1.537742469140648422e-16 -5.087092062665270717e-15 -2.155746277195294443e-15 4.490279753817189365e-16 -1.139689821746278331e-15 0.000000000000000000e+00 0.000000000000000000e+00 0.000000000000000000e+00 0.000000000000000000e+00 -4.173596867702611984e-17 6.473507083110791217e-15 0.000000000000000000e+00 -1.603740172712719570e-15 3.290367425592129576e-15 -2.155746277195294443e-15 4.490279753817189365e-16 -1.139689821746278331e-15 0.000000000000000000e+00 0.000000000000000000e+00 0.000000000000000000e+00 0.000000000000000000e+00 1.124255039326417070e-15 1.523610438423816864e-14 0.000000000000000000e+00 -3.972008070646737339e-15 -1.233837563795236630e-15 -3.814929292886754669e-02 1.035260226147192569e-01 3.069482712702623628e-01 4.552600657216991642e-02 1.208859706757899610e-01 -1.001913932317937822e-01 8.979558832229737053e-01 -8.054023246613074560e-01 8.240801807211366459e-01 -1.666557878755951239e-01 5.780279151189070541e-01 -2.013186246236872146e-01 0.000000000000000000e+00 0.000000000000000000e+00 0.000000000000000000e+00 -1.751666922383048102e-15 -3.211016152740569211e-15 0.000000000000000000e+00 3.326476875794082513e-15 2.563761171040828362e-17 0.000000000000000000e+00 1.912948537582770363e-15 -1.365987385380429368e-15 3.694900610862390666e-15 0.000000000000000000e+00 0.000000000000000000e+00 0.000000000000000000e+00 0.000000000000000000e+00 2.341286866846122267e-15 4.927435671065279586e-15 0.000000000000000000e+00 7.268211837909668573e-16 -5.157808409669744544e-15 1.912948537582770363e-15 -1.365987385380429368e-15 3.694900610862390666e-15 0.000000000000000000e+00 1.438046656120565061e-16 1.068056776865216086e-15 0.000000000000000000e+00 1.488860367051001506e-15 -9.739470467106509068e-15 0.000000000000000000e+00 1.270648770350015289e-15 -1.163044808437155459e-14 1.912948537582770363e-15 -1.365987385380429368e-15 3.694900610862390666e-15 0.000000000000000000e+00 0.000000000000000000e+00 0.000000000000000000e+00 0.000000000000000000e+00 -1.037383650160015150e-15 -1.430827478521230930e-14 0.000000000000000000e+00 3.233708051744331401e-16 -7.708447905848914163e-15 1.912948537582770363e-15 -1.365987385380429368e-15 3.694900610862390666e-15 0.000000000000000000e+00 0.000000000000000000e+00 0.000000000000000000e+00 0.000000000000000000e+00 -4.788002522371928077e-15 -1.017293664739359154e-14 0.000000000000000000e+00 9.495252185856080356e-16 -1.012315762001039545e-14
4.500000000000000000e+02 0.000000000000000000e+00 0.000000000000000000e+00 0.000000000000000000e+00 0.000000000000000000e+00 0.000000000000000000e+00 -2.236331498804488421e-02 3.150535446912059584e-02 1.107482380259462718e-01 -1.058728764115675347e-01 7.168599463427199892e-02 -1.007299073418225083e-01 2.376475639536978005e-02 3.776035150980287802e-02 -4.293984722745324001e-02 4.305911803357509449e-02 -6.668397851761746764e-02 -9.297421433020773909e-03 -8.309103953554132505e-02 -3.997674705652135008e-02 -1.136826381998360808e-01 6.362631374770162662e-02 -5.189687279358608935e-02 -3.989182561580947167e-02 -1.889938653856043996e-02 5.985337780848255101e-02 -1.448262108054584191e-02 3.471672490387905929e-02 5.093418631820632175e-02 -1.130685896732041701e-01 8.564487623449483847e-03 6.945067030174395181e-03 -3.025873753370546954e-02 1.340051680668082057e-02 9.430319447781911751e-03 -4.568988263683548823e-02 -1.244844656900307746e-03 -2.211464081321616766e-03 7.816309862440168343e-03 -1.293692106695471834e-03 -1.868426801721585458e-03 -9.795493048538789910e-03 -9.368532133414106747e-03 -5.713932171334964311e-02 1.412912936868730429e-01 -8.826488031917069377e-02 -1.775991498939424318e-01 1.291856937008761252e-01 2.492551746116965505e-01 -1.857344990744152352e-02 3.334227894622013993e-02 -1.992691613206900358e+00 1.329493447204649348e+00 -2.781172702934255447e+00 9.310535561755342027e-01 -7.930749736371331959e-01 1.222264152495822653e+00 0.000000000000000000e+00 0.000000000000000000e+00 0.000000000000000000e+00 4.009278008825374184e-15 -1.657786453529641283e-15 0.000000000000000000e+00 -2.060872644144277508e-14 1.142944243514450685e-15 0.000000000000000000e+00 -1.820373763581338726e-15 5.800339742661850736e-16 -3.043104944381326550e-16 0.000000000000000000e+00 0.000000000000000000e+00 0.000000000000000000e+00 0.000000000000000000e+00 1.170211240912968951e-15 1.195330645895857898e-14 0.000000000000000000e+00 -4.094644304294707099e-16 -7.929026510704917447e-15 -1.820373763581338726e-15 5.800339742661850736e-16 -3.043104944381326550e-16 0.000000000000000000e+00 -1.833905978907077972e-15 -2.016660264297058144e-15 0.000000000000000000e+00 5.262933705241105112e-16 1.074588865519594931e-14 0.000000000000000000e+00 -2.107336997036366124e-15 -9.427404071720347240e-15 -1.820373763581338726e-15 5.800339742661850736e-16 -3.043104944381326550e-16 0.000000000000000000e+00 0.000000000000000000e+00 0.000000000000000000e+00 0.000000000000000000e+00 1.711348796502423618e-16 9.283949517661221285e-15 0.000000000000000000e+00 -1.910917878904234618e-15 -5.808110992075961866e-16 -1.820373763581338726e-15 5.800339742661850736e-16 -3.043104944381326550e-16 0.000000000000000000e+00 0.000000000000000000e+00 0.000000000000000000e+00 0.000000000000000000e+00 1.325741558602496262e-15 1.874415571851932114e-14 0.000000000000000000e+00 -2.395147516014015941e-15 -2.930208490824180788e-15 -4.620936053563724083e-02 1.064630050563604297e-01 2.780005903890850893e-01 2.416418036287532739e-02 6.628710204549032037e-02 -6.271606724689360313e-02 5.251761461905186668e-01 -4.379490362865816055e-01 4.779740902034915750e-01 -1.844795390221067866e-01 3.869628471656617608e-01 -2.193978124047125111e-01 0.000000000000000000e+00 0.000000000000000000e+00 0.000000000000000000e+00 -2.646601077038286177e-16 -1.859317260113929370e-15 0.000000000000000000e+00 1.127601755152721599e-15 6.974120328581504984e-16 0.000000000000000000e+00 1.001005363496828026e-15 -1.063905491924836770e-15 1.965405270122292950e-15 0.000000000000000000e+00 0.000000000000000000e+00 0.000000000000000000e+00 0.000000000000000000e+00 1.688549266728718396e-15 1.127273805614025642e-15 0.000000000000000000e+00 1.263477208289055441e-15 -3.218318052953444109e-15 1.001005363496828026e-15 -1.063905491924836770e-15 1.965405270122292950e-15 0.000000000000000000e+00 -9.876140919251147965e-16 -5.432101096450410758e-16 0.000000000000000000e+00 1.485307378473474225e-15 -6.037994223830812838e-15 0.000000000000000000e+00 5.726879953703797691e-16 -6.414266137103631615e-15 1.001005363496828026e-15 -1.063905491924836770e-15 1.965405270122292950e-15 0.000000000000000000e+00 0.000000000000000000e+00 0.000000000000000000e+00 0.000000000000000000e+00 4.823336834926924242e-16 -8.655073375945453569e-15 0.000000000000000000e+00 -2.480680029795315794e-17 -3.189031147842184061e-15 1.001005363496828026e-15 -1.063905491924836770e-15 1.965405270122292950e-15 0.000000000000000000e+00 0.000000000000000000e+00 0.000000000000000000e+00 0.000000000000000000e+00 -3.619592946014253035e-15 -7.045607534441851887e-15 0.000000000000000000e+00 8.219712357475376076e-16 -4.506547689941534614e-15
